<svg xmlns="http://www.w3.org/2000/svg" viewBox="0 0 210 297" width="210mm" height="297mm">
  <!-- Definición del formato A4 (210mm x 297mm) -->
  <rect x="0" y="0" width="210" height="297" fill="white" stroke="none"/>
  
  <!-- Posicionamiento de la cuadrícula centrada -->
  <!-- A4: 210mm x 297mm, Cuadrícula: 190mm x 270mm -->
  <!-- Margen horizontal: (210-190)/2 = 10mm -->
  <!-- Margen vertical: (297-270)/2 = 13.5mm -->
  
  <!-- Rectángulo principal de 19x27 cm exactos -->
  <rect x="10" y="13.5" width="190" height="270" fill="none" stroke="#999999" stroke-width="0.2"/>
  
  <!-- Subdivisiones verticales (18 líneas internas para crear 19 columnas) -->
  <g stroke="#999999" stroke-width="0.2">
    <line x1="20" y1="13.5" x2="20" y2="283.5"/>
    <line x1="30" y1="13.5" x2="30" y2="283.5"/>
    <line x1="40" y1="13.5" x2="40" y2="283.5"/>
    <line x1="50" y1="13.5" x2="50" y2="283.5"/>
    <line x1="60" y1="13.5" x2="60" y2="283.5"/>
    <line x1="70" y1="13.5" x2="70" y2="283.5"/>
    <line x1="80" y1="13.5" x2="80" y2="283.5"/>
    <line x1="90" y1="13.5" x2="90" y2="283.5"/>
    <line x1="100" y1="13.5" x2="100" y2="283.5"/>
    <line x1="110" y1="13.5" x2="110" y2="283.5"/>
    <line x1="120" y1="13.5" x2="120" y2="283.5"/>
    <line x1="130" y1="13.5" x2="130" y2="283.5"/>
    <line x1="140" y1="13.5" x2="140" y2="283.5"/>
    <line x1="150" y1="13.5" x2="150" y2="283.5"/>
    <line x1="160" y1="13.5" x2="160" y2="283.5"/>
    <line x1="170" y1="13.5" x2="170" y2="283.5"/>
    <line x1="180" y1="13.5" x2="180" y2="283.5"/>
    <line x1="190" y1="13.5" x2="190" y2="283.5"/>
  </g>
  
  <!-- Subdivisiones horizontales (26 líneas internas para crear 27 filas) -->
  <g stroke="#999999" stroke-width="0.2">
    <line x1="10" y1="23.5" x2="200" y2="23.5"/>
    <line x1="10" y1="33.5" x2="200" y2="33.5"/>
    <line x1="10" y1="43.5" x2="200" y2="43.5"/>
    <line x1="10" y1="53.5" x2="200" y2="53.5"/>
    <line x1="10" y1="63.5" x2="200" y2="63.5"/>
    <line x1="10" y1="73.5" x2="200" y2="73.5"/>
    <line x1="10" y1="83.5" x2="200" y2="83.5"/>
    <line x1="10" y1="93.5" x2="200" y2="93.5"/>
    <line x1="10" y1="103.5" x2="200" y2="103.5"/>
    <line x1="10" y1="113.5" x2="200" y2="113.5"/>
    <line x1="10" y1="123.5" x2="200" y2="123.5"/>
    <line x1="10" y1="133.5" x2="200" y2="133.5"/>
    <line x1="10" y1="143.5" x2="200" y2="143.5"/>
    <line x1="10" y1="153.5" x2="200" y2="153.5"/>
    <line x1="10" y1="163.5" x2="200" y2="163.5"/>
    <line x1="10" y1="173.5" x2="200" y2="173.5"/>
    <line x1="10" y1="183.5" x2="200" y2="183.5"/>
    <line x1="10" y1="193.5" x2="200" y2="193.5"/>
    <line x1="10" y1="203.5" x2="200" y2="203.5"/>
    <line x1="10" y1="213.5" x2="200" y2="213.5"/>
    <line x1="10" y1="223.5" x2="200" y2="223.5"/>
    <line x1="10" y1="233.5" x2="200" y2="233.5"/>
    <line x1="10" y1="243.5" x2="200" y2="243.5"/>
    <line x1="10" y1="253.5" x2="200" y2="253.5"/>
    <line x1="10" y1="263.5" x2="200" y2="263.5"/>
    <line x1="10" y1="273.5" x2="200" y2="273.5"/>
  </g>
</svg>
