<svg xmlns="http://www.w3.org/2000/svg" viewBox="0 0 210 297" width="210mm" height="297mm">
  <!-- Definición del formato A4 (210mm x 297mm) -->
  <rect x="0" y="0" width="210" height="297" fill="white" stroke="none"/>
  
  <!-- Posicionamiento de la cuadrícula centrada -->
  <!-- A4: 210mm x 297mm, Cuadrícula: 200mm x 280mm -->
  <!-- Margen horizontal: (210-200)/2 = 5mm -->
  <!-- Margen vertical: (297-280)/2 = 8.5mm -->
  
  <!-- Rectángulo principal de 20x28 cm exactos -->
  <rect x="5" y="8.5" width="200" height="280" fill="none" stroke="#999999" stroke-width="0.2"/>
  
  <!-- Subdivisiones verticales (19 líneas internas para crear 20 columnas) -->
  <g stroke="#999999" stroke-width="0.2">
    <line x1="15" y1="8.5" x2="15" y2="288.5"/>
    <line x1="25" y1="8.5" x2="25" y2="288.5"/>
    <line x1="35" y1="8.5" x2="35" y2="288.5"/>
    <line x1="45" y1="8.5" x2="45" y2="288.5"/>
    <line x1="55" y1="8.5" x2="55" y2="288.5"/>
    <line x1="65" y1="8.5" x2="65" y2="288.5"/>
    <line x1="75" y1="8.5" x2="75" y2="288.5"/>
    <line x1="85" y1="8.5" x2="85" y2="288.5"/>
    <line x1="95" y1="8.5" x2="95" y2="288.5"/>
    <line x1="105" y1="8.5" x2="105" y2="288.5"/>
    <line x1="115" y1="8.5" x2="115" y2="288.5"/>
    <line x1="125" y1="8.5" x2="125" y2="288.5"/>
    <line x1="135" y1="8.5" x2="135" y2="288.5"/>
    <line x1="145" y1="8.5" x2="145" y2="288.5"/>
    <line x1="155" y1="8.5" x2="155" y2="288.5"/>
    <line x1="165" y1="8.5" x2="165" y2="288.5"/>
    <line x1="175" y1="8.5" x2="175" y2="288.5"/>
    <line x1="185" y1="8.5" x2="185" y2="288.5"/>
    <line x1="195" y1="8.5" x2="195" y2="288.5"/>
  </g>
  
  <!-- Subdivisiones horizontales (27 líneas internas para crear 28 filas) -->
  <g stroke="#999999" stroke-width="0.2">
    <line x1="5" y1="18.5" x2="205" y2="18.5"/>
    <line x1="5" y1="28.5" x2="205" y2="28.5"/>
    <line x1="5" y1="38.5" x2="205" y2="38.5"/>
    <line x1="5" y1="48.5" x2="205" y2="48.5"/>
    <line x1="5" y1="58.5" x2="205" y2="58.5"/>
    <line x1="5" y1="68.5" x2="205" y2="68.5"/>
    <line x1="5" y1="78.5" x2="205" y2="78.5"/>
    <line x1="5" y1="88.5" x2="205" y2="88.5"/>
    <line x1="5" y1="98.5" x2="205" y2="98.5"/>
    <line x1="5" y1="108.5" x2="205" y2="108.5"/>
    <line x1="5" y1="118.5" x2="205" y2="118.5"/>
    <line x1="5" y1="128.5" x2="205" y2="128.5"/>
    <line x1="5" y1="138.5" x2="205" y2="138.5"/>
    <line x1="5" y1="148.5" x2="205" y2="148.5"/>
    <line x1="5" y1="158.5" x2="205" y2="158.5"/>
    <line x1="5" y1="168.5" x2="205" y2="168.5"/>
    <line x1="5" y1="178.5" x2="205" y2="178.5"/>
    <line x1="5" y1="188.5" x2="205" y2="188.5"/>
    <line x1="5" y1="198.5" x2="205" y2="198.5"/>
    <line x1="5" y1="208.5" x2="205" y2="208.5"/>
    <line x1="5" y1="218.5" x2="205" y2="218.5"/>
    <line x1="5" y1="228.5" x2="205" y2="228.5"/>
    <line x1="5" y1="238.5" x2="205" y2="238.5"/>
    <line x1="5" y1="248.5" x2="205" y2="248.5"/>
    <line x1="5" y1="258.5" x2="205" y2="258.5"/>
    <line x1="5" y1="268.5" x2="205" y2="268.5"/>
    <line x1="5" y1="278.5" x2="205" y2="278.5"/>
  </g>
</svg>
